<svg xmlns="http://www.w3.org/2000/svg" width="512" height="107" viewBox="0 0 135.46667 28.310417"
    xmlns:v="https://vecta.io/nano">
    <path
        d="M24.495143-3.43333e-7V27.80141h3.717084V-3.43333e-7zM39.740968 8.2856761c-5.896222 1.5798879-8.938731 6.8543259-7.41855 12.5277199s6.792282 8.719905 12.688504 7.140018c4.346543-1.164653 7.150238-4.307788 7.654119-8.172315l-3.968296 1.063302c-.660307 1.92007-2.158723 3.132502-4.577654 3.780652-3.250482.870964-6.241355-.314039-7.662343-3.500645l16.25203-4.354718-.354701-1.323761c-1.520181-5.6733942-6.716918-8.7401325-12.613109-7.1602529zm.89184 3.3283909c3.023672-.81019 5.916103.157724 7.434862 2.95329L35.708564 17.87897c-.07236-3.142588 1.824948-5.434449 4.924244-6.264903zM78.454642 1.6055945V20.47888c0 5.246987 3.130564 7.831537 7.747857 7.831537s7.747825-2.58455 7.747825-7.831537v-.430465h-3.678313v.430465c0 3.093392-1.643476 4.385765-4.069512 4.385765s-4.030251-1.33153-4.030251-4.385765v-8.614479h10.643285V8.4578836H82.172248V1.6055945zM7.7723653 8.2856114C1.8761364 9.8655012-1.1668486 15.140066.35333287 20.813461S7.1460907 29.533239 13.04232 27.953349c4.346542-1.164653 7.150237-4.307788 7.654118-8.172315l-3.9688 1.063437c-.660308 1.92007-2.158187 3.132359-4.57715 3.780518-3.2504911.870966-6.2418559-.313905-7.6628437-3.500511l16.2525307-4.354853-.354701-1.323761c-1.520181-5.6733939-6.716918-8.7401322-12.6131087-7.1602526zm.8918398 3.3283916c3.0237029-.810199 5.9161029.157724 7.4348619 2.95329L3.7394729 17.879036c-.072365-3.142588 1.825426-5.434577 4.9247322-6.265033zM65.385679 7.9488769c-6.104218 0-10.408671 4.3072561-10.408671 10.1807861s4.304453 10.180754 10.408671 10.180754c5.125979 0 8.960321-3.054008 9.977691-7.517858h-3.756377c-.93911 2.46685-3.208334 4.072086-6.221314 4.072086-3.99122 0-6.652326-2.819295-6.652326-6.734982s2.661106-6.734982 6.652326-6.734982c3.01298 0 5.282204 1.605204 6.221314 4.072087h3.756377c-1.01737-4.463884-4.851712-7.5178911-9.977691-7.5178911zm41.281701 0c-6.10418 0-10.40867 4.3072561-10.40867 10.1807861s4.30449 10.180754 10.40867 10.180754 10.40815-4.307223 10.40815-10.180754-4.30393-10.1807861-10.40815-10.1807861zm0 3.4458041c3.99122 0 6.65181 2.819295 6.65181 6.734982s-2.66059 6.734982-6.65181 6.734982-6.65229-2.819295-6.65229-6.734982 2.66107-6.734982 6.65229-6.734982zm20.73879-3.4458041c-4.61729 0-7.59127 2.5843531-7.59127 6.3825701 0 4.424726 4.06954 5.051105 7.43469 5.481831 2.42603.313255 4.46071.548098 4.46071 2.388471 0 1.527118-1.44803 2.741438-4.26536 2.741438-2.69994 0-4.18661-1.136006-4.26487-2.741438h-3.75634c.11739 3.524118 3.16914 6.108668 8.02121 6.108668s8.02173-2.545393 8.02173-6.46108c0-4.424726-4.10883-5.051105-7.47398-5.481831-2.38687-.313255-4.42142-.508843-4.42142-2.349216 0-1.527118 1.40851-2.702183 3.87367-2.702183 2.34778 0 3.71751 1.096914 3.8349 2.584875h3.67834c-.0783-3.328334-2.93472-5.9521051-7.55201-5.9521051z"
        fill="#6bd425" />
</svg>