<svg xmlns="http://www.w3.org/2000/svg" width="512" height="512" xmlns:v="https://vecta.io/nano"><circle cx="256" cy="256" r="256" fill="#2a2b2a"/><path d="M269.304686234975 38.800782883109c-21.968562267376-.357012601068-44.875064612967 2.46085497183-68.302735855623 8.738280561841C76.054400684196 81.018658482015 11.558082429453 192.73117363225 43.750000435686 312.8730472246s143.902056131436 184.637797633956 268.849607758443 151.158202079253c92.10877426179-24.680471679267 151.533041406052-91.251444654734 162.224611690849-173.093745440363l-84.099609440524 22.535147126687c-13.999083886118 40.664446953053-45.74923436553 66.340956426069-97.009768514958 80.076175154996-68.881339442923 18.456699277305-132.260205647486-6.626813048209-162.359373059192-74.105464574207l344.406254387238-92.283201734337-7.511724736592-28.033211080639C442.094066758506 101.511682499242 364.501785311122 40.347835130716 269.304686234975 38.800782883109zm-2.294919620131 73.421868402808c45.777762900003 1.294740326073 86.286724189574 23.920555607253 110.416018160828 68.31836339765l-261.910158336141 70.179692102904c-1.521828742107-66.551426609149 38.693529570352-115.099016248659 104.371095891898-132.697267105359 16.018913903178-4.29225504398 31.863789351852-6.232357981898 47.123044283415-5.800788395195z" fill="#75dc31"/></svg>