<?xml version="1.0" encoding="UTF-8" standalone="no"?>
<!-- Created with Inkscape (http://www.inkscape.org/) -->

<svg
   width="512"
   height="512"
   viewBox="0 0 512 512"
   version="1.1"
   id="svg1"
   inkscape:version="1.3 (0e150ed6c4, 2023-07-21)"
   sodipodi:docname="favicon.svg"
   xmlns:inkscape="http://www.inkscape.org/namespaces/inkscape"
   xmlns:sodipodi="http://sodipodi.sourceforge.net/DTD/sodipodi-0.dtd"
   xmlns="http://www.w3.org/2000/svg"
   xmlns:svg="http://www.w3.org/2000/svg">
  <sodipodi:namedview
     id="namedview1"
     pagecolor="#505050"
     bordercolor="#eeeeee"
     borderopacity="1"
     inkscape:showpageshadow="0"
     inkscape:pageopacity="0"
     inkscape:pagecheckerboard="0"
     inkscape:deskcolor="#505050"
     inkscape:document-units="px"
     inkscape:zoom="1.1228082"
     inkscape:cx="243.58567"
     inkscape:cy="248.92942"
     inkscape:window-width="1920"
     inkscape:window-height="1009"
     inkscape:window-x="-8"
     inkscape:window-y="-8"
     inkscape:window-maximized="1"
     inkscape:current-layer="layer1"
     showguides="false">
    <sodipodi:guide
       position="256,256"
       orientation="-1,0"
       id="guide1"
       inkscape:locked="false"
       inkscape:label=""
       inkscape:color="rgb(0,134,229)" />
    <sodipodi:guide
       position="256,256"
       orientation="0,1"
       id="guide2"
       inkscape:locked="false"
       inkscape:label=""
       inkscape:color="rgb(0,134,229)" />
  </sodipodi:namedview>
  <defs
     id="defs1" />
  <g
     inkscape:groupmode="layer"
     id="layer2"
     inkscape:label="Layer 2">
    <circle
       style="fill:#2a2b2a;stroke-width:20;fill-opacity:1"
       id="path2"
       cx="256"
       cy="256"
       r="256" />
  </g>
  <g
     inkscape:label="Layer 1"
     inkscape:groupmode="layer"
     id="layer1">
    <path
       id="text1"
       style="font-style:normal;font-variant:normal;font-weight:normal;font-stretch:normal;font-size:829.201px;font-family:'All Round Gothic';-inkscape-font-specification:'All Round Gothic, Normal';font-variant-ligatures:normal;font-variant-caps:normal;font-variant-numeric:normal;font-variant-east-asian:normal;fill:#75dc31;stroke-width:33.2687"
       d="M 250.08597 107.17986 C 228.95837 101.14913 206.10307 97.942342 181.84896 97.942342 C 52.493738 97.942342 -38.718248 189.15547 -38.718248 313.53549 C -38.718248 437.91551 52.492686 529.1265 181.84791 529.1265 C 277.20593 529.1265 351.8352 480.20401 383.34481 403.9176 L 296.2783 403.9183 C 272.23149 439.57391 234.91763 456.15797 181.84882 456.15797 C 110.53761 456.15797 55.810417 415.5255 44.201614 342.55589 L 400.75716 342.55606 L 400.75692 313.53388 C 400.75692 212.47512 341.6389 133.31302 250.08597 107.17986 z M 228.86627 177.50597 C 272.74909 190.60475 306.02175 222.9441 317.83786 272.07421 L 46.688233 272.07525 C 62.443036 207.39763 113.85313 170.91276 181.84755 170.91276 C 198.43155 170.91276 214.23866 173.13972 228.86627 177.50597 z "
       transform="rotate(-15)" />
  </g>
</svg>
